<?xml version="1.0" encoding="UTF-8"?>
<svg version="1.1" xmlns="http://www.w3.org/2000/svg" width="132" height="208">
<path d="M0 0 C8.10276749 2.95859595 20.77692028 8.24804545 25 16 C25.328125 18.65625 25.328125 18.65625 25.25 21.5 C25.23453125 22.4384375 25.2190625 23.376875 25.203125 24.34375 C25.02359478 26.69145284 24.65896381 28.7467689 24 31 C24.79921875 31.08636719 25.5984375 31.17273438 26.421875 31.26171875 C39.15731294 32.89101774 50.03457977 36.5108941 58.375 46.67578125 C60.25276371 49.30334644 61 50.71916122 61 54 C62.546875 53.8453125 62.546875 53.8453125 64.125 53.6875 C69.19970101 54.09675008 70.46272683 55.46272683 74 59 C75.11482784 61.22965568 75.29662279 62.70720738 75.4375 65.1875 C75.49808594 65.92355469 75.55867187 66.65960938 75.62109375 67.41796875 C74.91881121 70.33752069 74.12050214 71.05050871 72.06274414 73.15039062 C68.80378026 76.8824343 67.87299535 80.30941188 67.375 85.17578125 C67.26857178 86.01627518 67.16214355 86.8567691 67.05249023 87.72273254 C66.67225667 90.81234862 66.33578546 93.90524019 66 97 C65.77330296 98.98737117 65.54655622 100.9747369 65.31867981 102.96197319 C63.98136338 114.65317261 62.73079551 126.35378844 61.47949219 138.05444336 C61.05290355 142.03974475 60.62062102 146.02439943 60.18527222 150.00875282 C59.94665917 152.20853022 59.71452862 154.4089235 59.48266602 156.60942078 C58.70352339 163.84651907 57.75404264 171.04038082 56.55078125 178.2199707 C56.43830551 178.92288585 56.32582977 179.62580099 56.20994568 180.35001659 C54.76447118 188.58282851 50.55032576 194.55509874 43.99281311 199.62194824 C37.09641779 204.39087998 30.67189048 205.60330587 22.41015625 205.53125 C21.42558945 205.5350769 20.44102264 205.53890381 19.42662048 205.54284668 C17.35675018 205.54555305 15.28684493 205.53828185 13.21704102 205.52148438 C10.0742451 205.50007999 6.93374089 205.52131839 3.79101562 205.546875 C1.76822419 205.54423105 -0.25456584 205.53910469 -2.27734375 205.53125 C-3.20369125 205.53934692 -4.13003876 205.54744385 -5.0844574 205.55578613 C-13.52659654 205.43634058 -21.42513978 203.11507515 -27.8125 197.375 C-28.49957031 196.78460938 -29.18664062 196.19421875 -29.89453125 195.5859375 C-36.30763144 187.70936546 -37.9802887 179.35575544 -39.0625 169.46484375 C-39.21936783 168.16801163 -39.37623566 166.8711795 -39.53785706 165.53504944 C-39.87257106 162.76742743 -40.19580091 159.99880788 -40.50979614 157.22875977 C-41.00040452 152.90567494 -41.52164578 148.58660242 -42.04663086 144.26757812 C-43.46894657 132.50578647 -44.83724705 120.73920934 -46.06411743 108.95521545 C-46.46035395 105.16162047 -46.87503658 101.37014443 -47.29077148 97.5786438 C-47.5555702 95.06576229 -47.78561203 92.55135095 -48.01367188 90.03491211 C-48.77627168 82.55293887 -49.47203252 76.80209513 -55.48120117 71.60400391 C-57.41759447 69.55897836 -57.56530892 68.14536627 -57.75 65.375 C-57.32610189 60.65505755 -55.63416633 58.10418374 -52 55 C-50.09765625 54.54296875 -50.09765625 54.54296875 -48.0625 54.25 C-45.16418574 53.72205428 -44.27632442 53.38862739 -42.5390625 50.9453125 C-42.09304687 50.09710938 -41.64703125 49.24890625 -41.1875 48.375 C-37.1189735 40.73545703 -30.30385579 35.91419257 -22.1875 33.0625 C-16.03775062 31.36150549 -10.35381614 30.89045145 -4 31 C-3.67 29.02 -3.34 27.04 -3 25 C-3.59167969 24.82984375 -4.18335938 24.6596875 -4.79296875 24.484375 C-9.6157329 23.0052891 -13.29855998 21.58577002 -17 18 C-18.74221711 14.51556578 -18.58675154 10.80112955 -18 7 C-13.85549819 -0.48484654 -7.90418853 -1.27370352 0 0 Z " fill="#5D3322" transform="translate(57,0)"/>
<path d="M0 0 C31.35 0 62.7 0 95 0 C94.01 9.57 93.02 19.14 92 29 C91.41008691 34.76994343 91.41008691 34.76994343 90.82226562 40.5401001 C90.34448242 45.22952411 89.85984189 49.91823477 89.375 54.60693359 C89.12281159 57.05690463 88.87284905 59.50710571 88.625 61.95751953 C84.44126068 103.26649769 84.44126068 103.26649769 77.47265625 110.609375 C71.22987458 115.65893801 66.37786251 116.32306284 58.60546875 116.37109375 C57.69928299 116.38012222 56.79309723 116.3891507 55.85945129 116.39845276 C53.94564097 116.41293066 52.03178143 116.42183587 50.11791992 116.42553711 C47.20731086 116.43741913 44.29883309 116.48661568 41.38867188 116.53710938 C39.52344778 116.5465764 37.65821074 116.5538101 35.79296875 116.55859375 C34.93124557 116.57812607 34.0695224 116.59765839 33.1816864 116.61778259 C26.1858858 116.56619045 21.64167025 114.27079947 16.47233582 109.62791443 C9.73183285 102.42175423 10.10462394 90.76531565 9 81.4375 C8.75110485 79.37317721 8.50076484 77.30903379 8.25015259 75.24491882 C8.08233202 73.86203189 7.91516473 72.47906553 7.74862671 71.09602356 C7.21513184 66.68627699 6.63949463 62.28405892 6.0390625 57.8828125 C4.80751566 48.73598637 3.75643606 39.56909659 2.71289062 30.39916992 C2.37196364 27.41088579 2.02587307 24.42322583 1.6796875 21.43554688 C1.46062272 19.51826511 1.24186155 17.60094862 1.0234375 15.68359375 C0.92034271 14.79917099 0.81724792 13.91474823 0.71102905 13.00352478 C0.61738068 12.17148026 0.5237323 11.33943573 0.42724609 10.48217773 C0.34445404 9.7590892 0.26166199 9.03600067 0.17636108 8.29100037 C-0.03580625 5.53486266 0 2.76429196 0 0 Z " fill="#E0A148" transform="translate(19,82)"/>
<path d="M0 0 C8.10276749 2.95859595 20.77692028 8.24804545 25 16 C25.328125 18.65625 25.328125 18.65625 25.25 21.5 C25.23453125 22.4384375 25.2190625 23.376875 25.203125 24.34375 C25.02359478 26.69145284 24.65896381 28.7467689 24 31 C24.79921875 31.08636719 25.5984375 31.17273438 26.421875 31.26171875 C39.15731294 32.89101774 50.03457977 36.5108941 58.375 46.67578125 C60.25276371 49.30334644 61 50.71916122 61 54 C62.546875 53.8453125 62.546875 53.8453125 64.125 53.6875 C69.19970101 54.09675008 70.46272683 55.46272683 74 59 C75.11482784 61.22965568 75.29662279 62.70720738 75.4375 65.1875 C75.49808594 65.92355469 75.55867187 66.65960938 75.62109375 67.41796875 C74.91881121 70.33752069 74.12050214 71.05050871 72.06274414 73.15039062 C68.80378026 76.8824343 67.87299535 80.30941188 67.375 85.17578125 C67.26857178 86.01627518 67.16214355 86.8567691 67.05249023 87.72273254 C66.67225667 90.81234862 66.33578546 93.90524019 66 97 C65.77330296 98.98737117 65.54655622 100.9747369 65.31867981 102.96197319 C63.98136338 114.65317261 62.73079551 126.35378844 61.47949219 138.05444336 C61.05290355 142.03974475 60.62062102 146.02439943 60.18527222 150.00875282 C59.94665917 152.20853022 59.71452862 154.4089235 59.48266602 156.60942078 C58.70352339 163.84651907 57.75404264 171.04038082 56.55078125 178.2199707 C56.43830551 178.92288585 56.32582977 179.62580099 56.20994568 180.35001659 C54.76447118 188.58282851 50.55032576 194.55509874 43.99281311 199.62194824 C37.09641779 204.39087998 30.67189048 205.60330587 22.41015625 205.53125 C21.42558945 205.5350769 20.44102264 205.53890381 19.42662048 205.54284668 C17.35675018 205.54555305 15.28684493 205.53828185 13.21704102 205.52148438 C10.0742451 205.50007999 6.93374089 205.52131839 3.79101562 205.546875 C1.76822419 205.54423105 -0.25456584 205.53910469 -2.27734375 205.53125 C-3.20369125 205.53934692 -4.13003876 205.54744385 -5.0844574 205.55578613 C-13.52659654 205.43634058 -21.42513978 203.11507515 -27.8125 197.375 C-28.49957031 196.78460938 -29.18664062 196.19421875 -29.89453125 195.5859375 C-36.30763144 187.70936546 -37.9802887 179.35575544 -39.0625 169.46484375 C-39.21936783 168.16801163 -39.37623566 166.8711795 -39.53785706 165.53504944 C-39.87257106 162.76742743 -40.19580091 159.99880788 -40.50979614 157.22875977 C-41.00040452 152.90567494 -41.52164578 148.58660242 -42.04663086 144.26757812 C-43.46894657 132.50578647 -44.83724705 120.73920934 -46.06411743 108.95521545 C-46.46035395 105.16162047 -46.87503658 101.37014443 -47.29077148 97.5786438 C-47.5555702 95.06576229 -47.78561203 92.55135095 -48.01367188 90.03491211 C-48.77627168 82.55293887 -49.47203252 76.80209513 -55.48120117 71.60400391 C-57.41759447 69.55897836 -57.56530892 68.14536627 -57.75 65.375 C-57.32610189 60.65505755 -55.63416633 58.10418374 -52 55 C-50.09765625 54.54296875 -50.09765625 54.54296875 -48.0625 54.25 C-45.16418574 53.72205428 -44.27632442 53.38862739 -42.5390625 50.9453125 C-42.09304687 50.09710938 -41.64703125 49.24890625 -41.1875 48.375 C-37.1189735 40.73545703 -30.30385579 35.91419257 -22.1875 33.0625 C-16.03775062 31.36150549 -10.35381614 30.89045145 -4 31 C-3.67 29.02 -3.34 27.04 -3 25 C-3.59167969 24.82984375 -4.18335938 24.6596875 -4.79296875 24.484375 C-9.6157329 23.0052891 -13.29855998 21.58577002 -17 18 C-18.74221711 14.51556578 -18.58675154 10.80112955 -18 7 C-13.85549819 -0.48484654 -7.90418853 -1.27370352 0 0 Z M-9.875 8.125 C-11.25264858 10.05094815 -11.25264858 10.05094815 -10.97265625 12.90625 C-10.27880529 16.24913577 -10.27880529 16.24913577 -7.12890625 17.8984375 C-5.95199219 18.38570312 -4.77507813 18.87296875 -3.5625 19.375 C-2.38816406 19.87773437 -1.21382812 20.38046875 -0.00390625 20.8984375 C2.77970198 22.11476351 2.77970198 22.11476351 5 22 C4.855625 22.56847656 4.71125 23.13695313 4.5625 23.72265625 C3.38454495 28.62262205 2.78572473 32.9645312 3 38 C2.32195313 37.97679688 1.64390625 37.95359375 0.9453125 37.9296875 C-11.35521824 37.69117305 -22.53209324 39.73375985 -31.9375 48.25 C-35.43558038 51.98733588 -36.82955658 56.08413763 -38 61 C-39.2375 60.9175 -40.475 60.835 -41.75 60.75 C-44.90861045 60.75561032 -45.82759424 60.8864645 -48.5625 62.6875 C-50.2144736 64.90914547 -50.2144736 64.90914547 -50.0625 67.5625 C-49.20433553 70.22539613 -49.20433553 70.22539613 -46.5 71.3125 C-44 73 -44 73 -43.484375 74.92578125 C-43.26912849 76.94551096 -43.13077116 78.9730471 -43 81 C-42.67 81.33 -42.34 81.66 -42 82 C-41.58836884 84.9951432 -41.23366921 87.9789922 -40.9140625 90.984375 C-40.81161224 91.90978088 -40.70916199 92.83518677 -40.60360718 93.78863525 C-40.27326501 96.77531874 -39.94858925 99.76257785 -39.625 102.75 C-38.29497897 114.99437821 -36.8730397 127.19990717 -35.07154846 139.3846283 C-34.23457352 145.12753627 -33.54617381 150.86956327 -32.97265625 156.64453125 C-32.85709381 157.79092575 -32.85709381 157.79092575 -32.73919678 158.96047974 C-32.43194183 162.02922838 -32.12815215 165.09802406 -31.84594727 168.16918945 C-30.78941213 179.53665946 -29.48250188 188.51749812 -21 197 C-15.11768275 200.98360762 -9.69417164 201.61549387 -2.7265625 201.6015625 C-1.28088394 201.61441788 -1.28088394 201.61441788 0.19400024 201.62753296 C2.22272617 201.63896338 4.25153402 201.64006162 6.28027344 201.63134766 C9.36016726 201.62503042 12.43620571 201.67198849 15.515625 201.72265625 C29.90708295 202.04968904 29.90708295 202.04968904 42 195 C46.46876475 190.10251017 48.99163256 184.72368248 49.71435547 178.15429688 C49.82154907 177.21172028 49.92874268 176.26914368 50.03918457 175.29800415 C50.14742554 174.28185028 50.2556665 173.26569641 50.3671875 172.21875 C50.4868689 171.1486972 50.60655029 170.07864441 50.7298584 168.97616577 C51.11856951 165.48484407 51.49706367 161.99250315 51.875 158.5 C52.13962076 156.09646007 52.40476039 153.6929772 52.67041016 151.28955078 C53.20213035 146.46851552 53.72959859 141.6470421 54.25390625 136.82519531 C54.81782227 131.64806263 55.3941151 126.47249629 55.98092651 121.2979126 C56.36269894 117.9298892 56.73957393 114.56133016 57.11529541 111.19262695 C57.28615633 109.6678488 57.45875645 108.14326437 57.63323975 106.61889648 C58.57173524 98.39251553 59.25625064 90.28981769 59 82 C59.66 82 60.32 82 61 82 C61.00257812 81.39671875 61.00515625 80.7934375 61.0078125 80.171875 C61.12955491 77.65586516 61.32875908 75.43166523 62 73 C65.0625 70.75 65.0625 70.75 68 69 C68.91691437 66.45540067 68.91691437 66.45540067 68 64 C64.21669117 60.67527405 60.88424492 60.71269148 56 61 C55.814375 60.195625 55.62875 59.39125 55.4375 58.5625 C52.29105129 50.76477929 47.5310049 45.39647167 39.8125 41.99609375 C32.00212389 39.22991888 24.2942753 37.51210145 16 38 C16.2165625 36.80503906 16.2165625 36.80503906 16.4375 35.5859375 C16.7159375 33.99652344 16.7159375 33.99652344 17 32.375 C17.2784375 30.80878906 17.2784375 30.80878906 17.5625 29.2109375 C18.2358901 24.26873515 18.74305273 20.32391309 16 16 C14.10371943 14.64641283 14.10371943 14.64641283 11.82421875 13.640625 C10.99599609 13.24746094 10.16777344 12.85429687 9.31445312 12.44921875 C8.44755859 12.05347656 7.58066406 11.65773438 6.6875 11.25 C5.83220703 10.83878906 4.97691406 10.42757813 4.09570312 10.00390625 C-2.7726794 6.55587769 -2.7726794 6.55587769 -9.875 8.125 Z " fill="#FBFBFB" transform="translate(57,0)"/>
<path d="M0 0 C5.36619079 0.56530626 9.50261596 2.41707087 14.25 4.8125 C14.96929687 5.15603516 15.68859375 5.49957031 16.4296875 5.85351562 C21.54603638 8.40689947 21.54603638 8.40689947 23.50390625 10.96484375 C24.0998991 13.40982228 24.01721726 15.25527178 23.6875 17.75 C23.57921875 18.61882813 23.4709375 19.48765625 23.359375 20.3828125 C23.24078125 21.24648438 23.1221875 22.11015625 23 23 C22.81164193 24.54156206 22.62405012 26.0832181 22.4375 27.625 C22.293125 28.73875 22.14875 29.8525 22 31 C23.15628906 30.96648438 24.31257813 30.93296875 25.50390625 30.8984375 C35.66847594 30.91185607 47.56657254 33.80380959 55 41 C58.28225045 45.01551917 60.97623286 48.85789688 62 54 C60.68 54 59.36 54 58 54 C57.75765625 53.45730469 57.5153125 52.91460937 57.265625 52.35546875 C54.69107324 46.80914453 54.69107324 46.80914453 50 43 C50.3609375 43.54269531 50.721875 44.08539063 51.09375 44.64453125 C51.78984375 45.71767578 51.78984375 45.71767578 52.5 46.8125 C53.19609375 47.87404297 53.19609375 47.87404297 53.90625 48.95703125 C55 51 55 51 55 54 C27.61 54 0.22 54 -28 54 C-26.91268747 47.47612485 -25.80605224 45.18938973 -21 41 C-14.12601535 36.3603656 -7.10592375 34.98340418 1 34 C2.36617059 33.81590609 3.73204471 33.62960231 5.09765625 33.44140625 C8.72957963 32.94353946 12.36395472 32.46692385 16 32 C14.68 31.67 13.36 31.34 12 31 C12.33 25.06 12.66 19.12 13 13 C8.38 10.69 3.76 8.38 -1 6 C-1 3 -1 3 0 0 Z " fill="#C2A47F" transform="translate(51,7)"/>
<path d="M0 0 C2.31 0 4.62 0 7 0 C6.27908632 7.03232733 5.55024697 14.06381538 4.81829834 21.09500122 C4.18783608 27.16306733 3.56807438 33.23219144 2.94998169 39.30152893 C2.43496122 44.34499142 1.91443687 49.38787867 1.39312744 54.43069458 C1.13325183 56.95543399 0.87552373 59.48039547 0.62005615 62.00558472 C-3.55871894 103.26647622 -3.55871894 103.26647622 -10.52734375 110.609375 C-16.77012542 115.65893801 -21.62213749 116.32306284 -29.39453125 116.37109375 C-30.30071701 116.38012222 -31.20690277 116.3891507 -32.14054871 116.39845276 C-34.05435903 116.41293066 -35.96821857 116.42183587 -37.88208008 116.42553711 C-40.79268914 116.43741913 -43.70116691 116.48661568 -46.61132812 116.53710938 C-48.47655222 116.5465764 -50.34178926 116.5538101 -52.20703125 116.55859375 C-53.06875443 116.57812607 -53.9304776 116.59765839 -54.8183136 116.61778259 C-61.79224828 116.5663517 -66.55381877 114.33731585 -71.56306458 109.48631287 C-74.09361966 106.63470106 -75.06065145 104.75739419 -76 101 C-55.87 100.67 -35.74 100.34 -15 100 C-12.25112798 81.13968366 -9.55649273 62.30766613 -7.43261719 43.36743164 C-6.36806593 34.14230422 -4.79553637 25.10319626 -3 16 C-2.68129684 14.31293229 -2.36443079 12.62551455 -2.05078125 10.9375 C-1.3671875 7.29166667 -0.68359375 3.64583333 0 0 Z " fill="#B78232" transform="translate(107,82)"/>
<path d="M0 0 C4.29 0 8.58 0 13 0 C13 0.33 13 0.66 13 1 C10.03 1 7.06 1 4 1 C4.81655901 7.84626737 5.63448751 14.69236933 6.45361328 21.53833008 C6.73132143 23.86087768 7.00867373 26.18346787 7.28564453 28.50610352 C8.63204304 39.79495023 9.9802337 51.08027797 11.51708984 62.3449707 C11.98869267 65.91441755 12.42445295 69.4863615 12.84951782 73.06156921 C13.2464781 76.38795047 13.6563773 79.71268198 14.06738281 83.03735352 C14.27434388 84.73624111 14.47574473 86.43581432 14.671875 88.13598633 C14.96161373 90.63569768 15.27180147 93.13215861 15.5859375 95.62890625 C15.66838715 96.38208633 15.75083679 97.13526642 15.83578491 97.91127014 C16.63730744 104.02420897 18.84352644 108.0591738 23.5 112.25 C27.09978434 114.76984904 29.7449775 116.2430864 34.18261719 116.29052734 C34.99736511 116.30328705 35.81211304 116.31604675 36.65155029 116.32919312 C37.52450745 116.33141876 38.3974646 116.33364441 39.296875 116.3359375 C40.65827606 116.3459227 40.65827606 116.3459227 42.04718018 116.35610962 C43.96697975 116.36622641 45.88681442 116.37092694 47.80664062 116.37060547 C50.7258602 116.37496396 53.64354927 116.41125267 56.5625 116.44921875 C58.43228653 116.45509026 60.3020802 116.45905742 62.171875 116.4609375 C63.46916534 116.48249405 63.46916534 116.48249405 64.79266357 116.50448608 C71.25181816 116.45644772 76.68028011 115.06868821 81.52752686 110.58798218 C86.25167488 105.23974675 87.35110846 99.81373923 88.1484375 92.9140625 C88.24574158 92.1168277 88.34304565 91.3195929 88.44329834 90.49819946 C88.76106267 87.8746076 89.0682967 85.24990612 89.375 82.625 C89.59464841 80.78870815 89.8145412 78.95244551 90.03466797 77.11621094 C91.63023612 63.68702787 93.03333379 50.24106297 94.36993408 36.78396606 C95.59455936 24.47019356 97.04439007 12.22256204 99 0 C100.32 0.33 101.64 0.66 103 1 C102.34 1 101.68 1 101 1 C101.02537842 1.55115479 101.05075684 2.10230957 101.0769043 2.67016602 C101.31801047 12.83303735 99.96032044 22.85955339 98.8125 32.9375 C98.58436864 34.96253507 98.35650845 36.9876007 98.12890625 39.01269531 C97.77581452 42.15331432 97.42213473 45.29385668 97.06582642 48.43411255 C96.35228599 54.74923241 95.67750995 61.06686421 95.04045105 67.39015198 C94.63630418 71.38866952 94.21729223 75.38556102 93.79647827 79.38235474 C93.6006884 81.27610528 93.41145046 83.17054603 93.22915649 85.06564331 C91.08045295 107.30058103 91.08045295 107.30058103 83.9296875 113.91503906 C79.51011073 117.43120234 75.31593035 120.2261432 69.55786133 120.30639648 C68.68627884 120.32238388 67.81469635 120.33837128 66.91670227 120.35484314 C65.98126083 120.36020584 65.0458194 120.36556854 64.08203125 120.37109375 C62.6243055 120.38463646 62.6243055 120.38463646 61.13713074 120.39845276 C59.0803027 120.41295307 57.02342856 120.42184145 54.96655273 120.42553711 C51.84082746 120.43739256 48.71710325 120.48654606 45.59179688 120.53710938 C43.58855125 120.54657902 41.58529355 120.55381146 39.58203125 120.55859375 C38.65671097 120.57812607 37.73139069 120.59765839 36.7780304 120.61778259 C29.18887262 120.56580177 23.36224495 118.26936526 17.87890625 112.9375 C17.44449219 112.298125 17.01007812 111.65875 16.5625 111 C15.88380859 110.0409375 15.88380859 110.0409375 15.19140625 109.0625 C12.44885095 104.31473213 11.56148203 99.77929445 11.03515625 94.375 C10.95631699 93.63282227 10.87747772 92.89064453 10.79624939 92.12597656 C10.54483075 89.75130696 10.30293761 87.37580449 10.0625 85 C9.74596208 81.91611869 9.4244766 78.83280875 9.09765625 75.75 C9.01406357 74.96131027 8.93047089 74.17262054 8.84434509 73.36003113 C8.20383288 67.4861997 7.40151729 61.64575528 6.5390625 55.80078125 C4.84461799 44.29333651 3.56402245 32.75021342 2.3125 21.1875 C2.08560109 19.1151999 1.85838887 17.04293408 1.63085938 14.97070312 C1.08364807 9.98085422 0.54060485 4.99056879 0 0 Z " fill="#413A38" transform="translate(15,81)"/>
<path d="M0 0 C5.36619079 0.56530626 9.50261596 2.41707087 14.25 4.8125 C14.96929687 5.15603516 15.68859375 5.49957031 16.4296875 5.85351562 C21.54603638 8.40689947 21.54603638 8.40689947 23.50390625 10.96484375 C24.0998991 13.40982228 24.01721726 15.25527178 23.6875 17.75 C23.57921875 18.61882813 23.4709375 19.48765625 23.359375 20.3828125 C23.24078125 21.24648438 23.1221875 22.11015625 23 23 C22.81164193 24.54156206 22.62405012 26.0832181 22.4375 27.625 C22.293125 28.73875 22.14875 29.8525 22 31 C23.15628906 30.96648438 24.31257813 30.93296875 25.50390625 30.8984375 C35.66847594 30.91185607 47.56657254 33.80380959 55 41 C58.28225045 45.01551917 60.97623286 48.85789688 62 54 C60.68 54 59.36 54 58 54 C57.75765625 53.46890625 57.5153125 52.9378125 57.265625 52.390625 C56.93046875 51.68421875 56.5953125 50.9778125 56.25 50.25 C55.92515625 49.55390625 55.6003125 48.8578125 55.265625 48.140625 C50.95698728 40.85317601 43.17523475 38.42818051 35.3671875 36.2734375 C27.03906604 34.56706399 18.4716562 34.37740086 10 34 C10 33.67 10 33.34 10 33 C12.97 32.505 12.97 32.505 16 32 C14.68 31.67 13.36 31.34 12 31 C12.495 22.09 12.495 22.09 13 13 C8.38 10.69 3.76 8.38 -1 6 C-1 3 -1 3 0 0 Z " fill="#403D41" transform="translate(51,7)"/>
<path d="M0 0 C0.99 0.33 1.98 0.66 3 1 C3.375 3.25 3.375 3.25 3 6 C2.030625 6.598125 1.06125 7.19625 0.0625 7.8125 C-3.10383126 9.60566508 -3.10383126 9.60566508 -3.62109375 12.02734375 C-3.84750821 14.00934109 -3.93354065 16.00621964 -4 18 C-4.33 18 -4.66 18 -5 18 C-5 15.36 -5 12.72 -5 10 C-38.33 10 -71.66 10 -106 10 C-106 12.64 -106 15.28 -106 18 C-106.66 18 -107.32 18 -108 18 C-108.22786458 16.01432292 -108.45572917 14.02864583 -108.68359375 12.04296875 C-108.97170735 9.80603607 -108.97170735 9.80603607 -110 7 C-109.05957855 7.00392761 -109.05957855 7.00392761 -108.10015869 7.00793457 C-86.23980543 7.08487849 -64.38692702 6.8248924 -42.52886963 6.53643799 C-37.82785702 6.47479586 -33.12681803 6.41523395 -28.42578125 6.35546875 C-19.28382804 6.23895285 -10.14190507 6.12022973 -1 6 C-0.67 4.02 -0.34 2.04 0 0 Z " fill="#47281E" transform="translate(122,63)"/>
<path d="M0 0 C2 1 2 1 3 3 C2.34 3.66 1.68 4.32 1 5 C5.95 7.64 10.9 10.28 16 13 C15 25.85714286 15 25.85714286 14 31 C15.98 31 17.96 31 20 31 C17.50365169 33.49634831 16.36865711 33.37727647 12.90625 33.7109375 C11.875 33.82179687 10.84375 33.93265625 9.78125 34.046875 C7.62545911 34.26245409 5.46921237 34.47353117 3.3125 34.6796875 C-6.61056641 35.76041751 -16.26848457 38.10787846 -23 46 C-24.59294431 48.6186681 -25.78136616 51.17276949 -27 54 C-27.99 54 -28.98 54 -30 54 C-28.33266045 46.49697202 -25.22971457 41.56779391 -19 37 C-9.07482529 31.69516524 -0.05720871 30.82004543 11 31 C11.09087891 29.64455078 11.09087891 29.64455078 11.18359375 28.26171875 C11.26738281 27.08222656 11.35117187 25.90273438 11.4375 24.6875 C11.51871094 23.51574219 11.59992187 22.34398437 11.68359375 21.13671875 C12 18 12 18 13 15 C12.195625 14.7525 11.39125 14.505 10.5625 14.25 C9.386875 13.8375 8.21125 13.425 7 13 C6.21882813 12.731875 5.43765625 12.46375 4.6328125 12.1875 C2.25797495 11.27701915 0.13833073 10.37942421 -2 9 C-3.25 5.9375 -3.25 5.9375 -3 3 C-1.5625 1.125 -1.5625 1.125 0 0 Z " fill="#3A373A" transform="translate(49,7)"/>
<path d="M0 0 C5.39026228 0.52895097 9.24229489 2.46333696 13.875 5.0625 C14.56335938 5.43955078 15.25171875 5.81660156 15.9609375 6.20507812 C17.6449213 7.12893035 19.32307467 8.06339667 21 9 C21.22262303 15.7281627 20.95021536 21.53991163 19 28 C17.02 28 15.04 28 13 28 C13.495 19.09 13.495 19.09 14 10 C9.38 7.69 4.76 5.38 0 3 C0 2.01 0 1.02 0 0 Z " fill="#B6DADE" transform="translate(50,10)"/>
<path d="M0 0 C9.33022122 0.16495419 18.04630939 2.55033611 25.3671875 8.5234375 C28.68402641 12.01717449 33.125 17.36979449 33.125 22.375 C31.805 22.375 30.485 22.375 29.125 22.375 C28.88265625 21.84390625 28.6403125 21.3128125 28.390625 20.765625 C28.05546875 20.05921875 27.7203125 19.3528125 27.375 18.625 C27.05015625 17.92890625 26.7253125 17.2328125 26.390625 16.515625 C22.45550578 9.85992953 16.20272876 7.64108178 9.125 5.375 C3.51181873 4.0757554 -2.17664357 3.20544768 -7.875 2.375 C-5.18953875 -0.31046125 -3.75250471 0.04499406 0 0 Z " fill="#3B3739" transform="translate(79.875,38.625)"/>
<path d="M0 0 C0.66 0 1.32 0 2 0 C3.74640116 8.30812204 4.53007706 16.52902072 5 25 C4.34 25 3.68 25 3 25 C2.67 25.66 2.34 26.32 2 27 C0.46859805 17.87995448 -0.27675737 9.25599658 0 0 Z " fill="#413A39" transform="translate(19,104)"/>
<path d="M0 0 C0.66 0.66 1.32 1.32 2 2 C-2.52150975 3.71121754 -6.55617153 4.35223612 -11.375 4.625 C-13.24285156 4.73714844 -13.24285156 4.73714844 -15.1484375 4.8515625 C-16.55996094 4.92503906 -16.55996094 4.92503906 -18 5 C-17.67 4.01 -17.34 3.02 -17 2 C-11.2869573 0.71255376 -5.87031033 -0.48919253 0 0 Z " fill="#484345" transform="translate(56,38)"/>
<path d="M0 0 C1.32 0.33 2.64 0.66 4 1 C3.25 5.75 3.25 5.75 1 8 C-0.32 8 -1.64 8 -3 8 C-2.45276317 4.62537285 -1.9451 2.91765 0 0 Z " fill="#523426" transform="translate(35,133)"/>
<path d="M0 0 C0.33 0 0.66 0 1 0 C1 1.65 1 3.3 1 5 C1.66 5 2.32 5 3 5 C2.67 9.62 2.34 14.24 2 19 C-1 16 -1 16 -1.07421875 12.20703125 C-0.96143619 10.74085796 -0.83192243 9.27589543 -0.6875 7.8125 C-0.62626953 7.06291016 -0.56503906 6.31332031 -0.50195312 5.54101562 C-0.34891389 3.69277255 -0.17633121 1.8461665 0 0 Z " fill="#4B4341" transform="translate(108,129)"/>
<path d="M0 0 C0.33 0 0.66 0 1 0 C1.33 4.62 1.66 9.24 2 14 C1.34 14 0.68 14 0 14 C-0.33 14.66 -0.66 15.32 -1 16 C-1.33 12.37 -1.66 8.74 -2 5 C-1.67 5 -1.34 5 -1 5 C-0.67 3.35 -0.34 1.7 0 0 Z " fill="#5A4D43" transform="translate(22,115)"/>
<path d="M0 0 C1.51953125 1.08203125 1.51953125 1.08203125 3 3 C3.07421875 6.13671875 3.07421875 6.13671875 2.6875 9.6875 C2.50767578 11.45673828 2.50767578 11.45673828 2.32421875 13.26171875 C2.21722656 14.16535156 2.11023438 15.06898437 2 16 C0.48046875 14.91796875 0.48046875 14.91796875 -1 13 C-1.07421875 9.86328125 -1.07421875 9.86328125 -0.6875 6.3125 C-0.56761719 5.13300781 -0.44773437 3.95351562 -0.32421875 2.73828125 C-0.16373047 1.38283203 -0.16373047 1.38283203 0 0 Z " fill="#4B4340" transform="translate(112,95)"/>
<path d="M0 0 C0.33 0.66 0.66 1.32 1 2 C1.66 2 2.32 2 3 2 C2.67 5.63 2.34 9.26 2 13 C1.01 13 0.02 13 -1 13 C-0.67 8.71 -0.34 4.42 0 0 Z " fill="#453D3B" transform="translate(104,168)"/>
<path d="M0 0 C4.22448388 1.56462366 6.40096753 4.41754984 9 8 C9.8125 10.875 9.8125 10.875 10 13 C9.01 13 8.02 13 7 13 C6.66226563 12.31292969 6.32453125 11.62585937 5.9765625 10.91796875 C5.53054687 10.01691406 5.08453125 9.11585937 4.625 8.1875 C4.18414062 7.29417969 3.74328125 6.40085937 3.2890625 5.48046875 C1.98133095 2.85443619 1.98133095 2.85443619 0 0 Z " fill="#736253" transform="translate(99,48)"/>
<path d="M0 0 C2.0625 0.4375 2.0625 0.4375 4 1 C4 2.65 4 4.3 4 6 C2.68 6.33 1.36 6.66 0 7 C-0.38133299 5.0085944 -0.71325582 3.00720923 -1 1 C-0.67 0.67 -0.34 0.34 0 0 Z " fill="#693B24" transform="translate(73,140)"/>
<path d="M0 0 C0.99 0 1.98 0 3 0 C3 1.98 3 3.96 3 6 C1.68 6.33 0.36 6.66 -1 7 C-1.625 4.625 -1.625 4.625 -2 2 C-1.34 1.34 -0.68 0.68 0 0 Z " fill="#694028" transform="translate(29,96)"/>
<path d="M0 0 C0.66 0 1.32 0 2 0 C1.979375 0.9075 1.95875 1.815 1.9375 2.75 C1.9889755 5.42672588 2.2215017 7.46988052 3 10 C1.0625 9.3125 1.0625 9.3125 -1 8 C-1.875 5.5625 -1.875 5.5625 -2 3 C-1.34 2.01 -0.68 1.02 0 0 Z " fill="#4D3D3C" transform="translate(9,62)"/>
<path d="M0 0 C1.32 0 2.64 0 4 0 C3.67 1.65 3.34 3.3 3 5 C1.35 5.33 -0.3 5.66 -2 6 C-1.125 1.125 -1.125 1.125 0 0 Z " fill="#704327" transform="translate(41,175)"/>
<path d="M0 0 C1.65 0.33 3.3 0.66 5 1 C4.67 2.32 4.34 3.64 4 5 C2.35 5 0.7 5 -1 5 C-0.67 3.35 -0.34 1.7 0 0 Z " fill="#734026" transform="translate(48,149)"/>
<path d="M0 0 C0.99 0 1.98 0 3 0 C3 1.98 3 3.96 3 6 C1.68 6.33 0.36 6.66 -1 7 C-1.04254356 5.00045254 -1.04080783 2.99958364 -1 1 C-0.67 0.67 -0.34 0.34 0 0 Z " fill="#623521" transform="translate(51,114)"/>
<path d="M0 0 C0.99 0.33 1.98 0.66 3 1 C3.25 3.3125 3.25 3.3125 3 6 C1 7.8125 1 7.8125 -1 9 C-1.66 8.67 -2.32 8.34 -3 8 C-2.34 7.34 -1.68 6.68 -1 6 C-0.60235737 4.01178687 -0.26224651 2.01055661 0 0 Z " fill="#3F3A3D" transform="translate(122,63)"/>
<path d="M0 0 C1.32 0.66 2.64 1.32 4 2 C4 3.32 4 4.64 4 6 C2.68 6 1.36 6 0 6 C-0.38218767 4.34385343 -0.71395102 2.67542976 -1 1 C-0.67 0.67 -0.34 0.34 0 0 Z " fill="#6E3E26" transform="translate(83,174)"/>
<path d="M0 0 C0.33 0.66 0.66 1.32 1 2 C1.99 2 2.98 2 4 2 C4.33 1.34 4.66 0.68 5 0 C5.33 1.32 5.66 2.64 6 4 C4.35 4.33 2.7 4.66 1 5 C0.34 3.68 -0.32 2.36 -1 1 C-0.67 0.67 -0.34 0.34 0 0 Z " fill="#4D2F22" transform="translate(78,159)"/>
<path d="M0 0 C0.99 0 1.98 0 3 0 C3 1.98 3 3.96 3 6 C1.68 5.67 0.36 5.34 -1 5 C-0.67 3.35 -0.34 1.7 0 0 Z " fill="#5F3422" transform="translate(78,111)"/>
<path d="M0 0 C0.99 0.33 1.98 0.66 3 1 C3 1.99 3 2.98 3 4 C1.02 4.33 -0.96 4.66 -3 5 C-2.67 3.68 -2.34 2.36 -2 1 C-2 1.66 -2 2.32 -2 3 C-1.34 3 -0.68 3 0 3 C0 2.01 0 1.02 0 0 Z " fill="#4B2D22" transform="translate(86,133)"/>
<path d="M0 0 C1.32 0 2.64 0 4 0 C3.67 1.32 3.34 2.64 3 4 C1.68 4 0.36 4 -1 4 C-0.67 2.68 -0.34 1.36 0 0 Z " fill="#593326" transform="translate(68,104)"/>
<path d="M0 0 C0.99 0.33 1.98 0.66 3 1 C2.34 1 1.68 1 1 1 C0.67 2.65 0.34 4.3 0 6 C-0.66 6 -1.32 6 -2 6 C-2.33 6.66 -2.66 7.32 -3 8 C-2.45276317 4.62537285 -1.9451 2.91765 0 0 Z " fill="#905E38" transform="translate(35,133)"/>
<path d="M0 0 C2.475 0.495 2.475 0.495 5 1 C4.67 1.99 4.34 2.98 4 4 C2.68 3.67 1.36 3.34 0 3 C0 2.01 0 1.02 0 0 Z " fill="#4B2E22" transform="translate(97,101)"/>
</svg>
